<svg xmlns="http://www.w3.org/2000/svg" xmlns:xlink="http://www.w3.org/1999/xlink" width="500" zoomAndPan="magnify" viewBox="0 0 375 374.999991" height="500" preserveAspectRatio="xMidYMid meet" version="1.0"><defs><g/><clipPath id="f6ed625a3e"><path d="M 175 103.089844 L 231.292969 103.089844 L 231.292969 186.316406 L 175 186.316406 Z M 175 103.089844 " clip-rule="nonzero"/></clipPath><clipPath id="f86b274a73"><path d="M 143.542969 103.089844 L 191 103.089844 L 191 186.316406 L 143.542969 186.316406 Z M 143.542969 103.089844 " clip-rule="nonzero"/></clipPath></defs><g clip-path="url(#f6ed625a3e)"><path fill="#1a1a1a" d="M 175.582031 144.777344 L 205.207031 186.304688 L 231.292969 186.304688 L 201.824219 144.777344 L 231.292969 103.082031 L 205.207031 103.082031 Z M 175.582031 144.777344 " fill-opacity="1" fill-rule="evenodd"/></g><g clip-path="url(#f86b274a73)"><path fill="#f26440" d="M 190.875 186.304688 L 161.414062 144.777344 L 190.875 103.082031 L 143.542969 103.082031 L 143.542969 186.304688 Z M 190.875 186.304688 " fill-opacity="1" fill-rule="evenodd"/></g><g fill="#1a1a1a" fill-opacity="1"><g transform="translate(91.525191, 220.326308)"><g><path d="M 21.453125 0 L 13.90625 -11.21875 L 10.125 -7.015625 L 10.125 0 L 2.859375 0 L 2.859375 -28.5625 L 10.125 -28.5625 L 10.125 -16.203125 L 21.046875 -28.5625 L 29.453125 -28.5625 L 18.84375 -16.734375 L 30.15625 0 Z M 21.453125 0 "/></g></g></g><g fill="#1a1a1a" fill-opacity="1"><g transform="translate(122.40203, 220.326308)"><g><path d="M 16.40625 -28.796875 C 20.832031 -28.796875 24.515625 -27.414062 27.453125 -24.65625 C 30.390625 -21.894531 31.859375 -18.445312 31.859375 -14.3125 C 31.859375 -10.15625 30.382812 -6.675781 27.4375 -3.875 C 24.488281 -1.070312 20.8125 0.328125 16.40625 0.328125 C 12 0.328125 8.328125 -1.0625 5.390625 -3.84375 C 2.453125 -6.632812 0.984375 -10.125 0.984375 -14.3125 C 0.984375 -18.476562 2.453125 -21.929688 5.390625 -24.671875 C 8.328125 -27.421875 12 -28.796875 16.40625 -28.796875 Z M 16.484375 -22.71875 C 14.253906 -22.71875 12.347656 -21.910156 10.765625 -20.296875 C 9.191406 -18.679688 8.40625 -16.675781 8.40625 -14.28125 C 8.40625 -11.882812 9.195312 -9.863281 10.78125 -8.21875 C 12.375 -6.570312 14.269531 -5.75 16.46875 -5.75 C 18.675781 -5.75 20.546875 -6.570312 22.078125 -8.21875 C 23.617188 -9.863281 24.390625 -11.882812 24.390625 -14.28125 C 24.390625 -16.675781 23.617188 -18.679688 22.078125 -20.296875 C 20.546875 -21.910156 18.679688 -22.71875 16.484375 -22.71875 Z M 16.484375 -22.71875 "/></g></g></g><g fill="#1a1a1a" fill-opacity="1"><g transform="translate(155.64459, 220.326308)"><g><path d="M 2.859375 -28.5625 L 15.296875 -28.5625 C 18.941406 -28.5625 21.769531 -27.695312 23.78125 -25.96875 C 25.789062 -24.238281 26.796875 -21.785156 26.796875 -18.609375 C 26.796875 -15.253906 25.789062 -12.648438 23.78125 -10.796875 C 21.769531 -8.953125 18.941406 -8.03125 15.296875 -8.03125 L 10.125 -8.03125 L 10.125 0 L 2.859375 0 Z M 10.125 -22.84375 L 10.125 -13.75 L 14.9375 -13.75 C 16.539062 -13.75 17.773438 -14.140625 18.640625 -14.921875 C 19.515625 -15.710938 19.953125 -16.859375 19.953125 -18.359375 C 19.953125 -19.828125 19.515625 -20.941406 18.640625 -21.703125 C 17.773438 -22.460938 16.539062 -22.84375 14.9375 -22.84375 Z M 10.125 -22.84375 "/></g></g></g><g fill="#1a1a1a" fill-opacity="1"><g transform="translate(183.788614, 220.326308)"><g><path d="M 21.828125 -5.265625 L 9.34375 -5.265625 L 7.265625 0 L -0.203125 0 L 12.109375 -28.5625 L 19.578125 -28.5625 L 31.625 0 L 23.859375 0 Z M 19.703125 -10.765625 L 15.625 -21.34375 L 11.46875 -10.765625 Z M 19.703125 -10.765625 "/></g></g></g><g fill="#1a1a1a" fill-opacity="1"><g transform="translate(215.603591, 220.326308)"><g><path d="M 2.859375 -28.5625 L 16.359375 -28.5625 C 19.566406 -28.5625 22.113281 -27.914062 24 -26.625 C 25.894531 -25.332031 26.84375 -23.597656 26.84375 -21.421875 C 26.84375 -19.921875 26.40625 -18.601562 25.53125 -17.46875 C 24.664062 -16.34375 23.472656 -15.566406 21.953125 -15.140625 C 23.742188 -14.785156 25.171875 -13.953125 26.234375 -12.640625 C 27.296875 -11.335938 27.828125 -9.765625 27.828125 -7.921875 C 27.828125 -5.492188 26.835938 -3.566406 24.859375 -2.140625 C 22.890625 -0.710938 20.21875 0 16.84375 0 L 2.859375 0 Z M 10.078125 -23.015625 L 10.078125 -17.140625 L 15.953125 -17.140625 C 17.015625 -17.140625 17.859375 -17.398438 18.484375 -17.921875 C 19.109375 -18.453125 19.421875 -19.179688 19.421875 -20.109375 C 19.421875 -21.003906 19.109375 -21.710938 18.484375 -22.234375 C 17.859375 -22.753906 17.015625 -23.015625 15.953125 -23.015625 Z M 10.078125 -11.90625 L 10.078125 -5.59375 L 15.953125 -5.59375 C 17.304688 -5.59375 18.367188 -5.875 19.140625 -6.4375 C 19.921875 -7.007812 20.3125 -7.800781 20.3125 -8.8125 C 20.3125 -9.757812 19.921875 -10.507812 19.140625 -11.0625 C 18.367188 -11.625 17.304688 -11.90625 15.953125 -11.90625 Z M 10.078125 -11.90625 "/></g></g></g><g fill="#1a1a1a" fill-opacity="1"><g transform="translate(245.175207, 220.326308)"><g><path d="M 21.828125 -5.265625 L 9.34375 -5.265625 L 7.265625 0 L -0.203125 0 L 12.109375 -28.5625 L 19.578125 -28.5625 L 31.625 0 L 23.859375 0 Z M 19.703125 -10.765625 L 15.625 -21.34375 L 11.46875 -10.765625 Z M 19.703125 -10.765625 "/></g></g></g><g fill="#1a1a1a" fill-opacity="1"><g transform="translate(276.990184, 220.326308)"><g><path d="M 10.125 -6.078125 L 22.234375 -6.078125 L 22.234375 0 L 2.859375 0 L 2.859375 -28.5625 L 10.125 -28.5625 Z M 10.125 -6.078125 "/></g></g></g></svg>